<svg width="71" height="66" viewBox="0 0 71 66" fill="none" xmlns="http://www.w3.org/2000/svg">
<path fill-rule="evenodd" clip-rule="evenodd" d="M21.7913 26.9679C22.0659 26.9793 22.3453 26.9902 22.6294 27.0006C22.6374 26.7449 22.6448 26.4951 22.6517 26.2514C22.7326 24.7753 22.7933 23.5453 22.8338 22.5612C22.9147 21.5421 22.9754 20.8568 23.0158 20.5053C23.0158 20.3505 23.0944 20.1957 23.2514 20.0408C21.4745 19.0148 19.8549 18.1784 18.3925 17.5318C16.1266 16.5477 14.5486 16.0557 13.6585 16.0557C13.2134 15.4583 12.8695 14.896 12.6267 14.3688C12.3839 13.8417 12.2018 13.3848 12.0805 12.9982C11.9186 12.5765 11.8377 12.1899 11.8377 11.8384C11.8377 11.0653 12.2221 10.6436 12.9908 10.5733C13.7596 10.4678 14.5891 10.5381 15.4792 10.7841C16.248 11.0301 17.3 11.5046 18.6352 12.2075C19.93 12.8752 21.3866 13.6835 23.0051 14.6324C24.6236 15.5813 26.323 16.6356 28.1033 17.7954C29.8431 18.9551 31.5425 20.15 33.2014 21.38C34.5367 20.7475 36.1349 20.0094 37.9961 19.166L43.4585 16.5302C45.2388 15.6164 46.8977 14.7554 48.4352 13.9471C49.9323 13.1388 51.045 12.471 51.7733 11.9439C52.7849 11.2761 53.5739 10.7314 54.1403 10.3097C54.7068 9.88795 55.1721 9.51894 55.5362 9.20265C55.9004 8.88635 56.2039 8.58763 56.4466 8.30647L57.2963 7.19944C57.62 7.79689 57.8628 8.39433 58.0246 8.99178C58.1865 9.55409 58.3079 10.0637 58.3888 10.5205C58.4697 11.0829 58.5102 11.5924 58.5102 12.0493C58.4697 12.9982 57.9639 13.8944 56.9929 14.7378C56.0622 15.5461 54.9496 16.2666 53.6548 16.8992C53.2097 17.1452 52.3398 17.5669 51.045 18.1644C49.8855 18.6679 48.5962 19.2419 47.1772 19.8864L47.1714 20.0309C47.1714 21.0149 47.1512 22.4031 47.1107 24.1954V27.0381C47.9364 27.0265 48.7218 27.0207 49.467 27.0207C50.7213 27.0207 51.7935 27.0382 52.6837 27.0734H54.5045C54.99 27.0734 55.4351 27.1788 55.8397 27.3897C56.2848 27.6005 56.6692 27.9344 56.9929 28.3913C57.3166 28.813 57.5593 29.4105 57.7212 30.1836C57.883 30.9217 57.9437 31.8354 57.9033 32.9249L55.779 32.6613C54.9293 32.5558 54.0999 32.468 53.2906 32.3977C52.36 32.2923 51.4294 32.2044 50.4988 32.1341C49.5682 32.0638 48.4757 32.0111 47.2214 31.976L47.1312 31.9734C47.1758 34.3325 47.2499 37.0115 47.3535 40.0103C47.2726 41.6269 47.2321 43.3138 47.2321 45.071C47.2321 46.5822 47.2726 48.2691 47.3535 50.1317C47.4344 51.9944 47.6165 53.8746 47.8997 55.7723C47.3737 56.1589 46.8073 56.4577 46.2003 56.6685C45.5934 56.8794 45.0067 57.0551 44.4403 57.1957C43.7929 57.3363 43.1455 57.4417 42.4981 57.512C42.1339 57.5471 41.8305 57.4768 41.5877 57.3011C41.3854 57.1605 41.2438 56.9672 41.1629 56.7212C41.082 56.5104 41.0213 56.2819 40.9808 56.0359V54.0327C41.0213 53.6461 41.0617 53.3298 41.1022 53.0838C41.1831 51.5726 41.2843 49.7451 41.4056 47.6014C41.527 45.4576 41.6484 43.0678 41.7698 40.432C41.4866 40.3968 41.2236 40.3793 40.9808 40.3793C40.738 40.3441 40.4548 40.309 40.1311 40.2738C38.3103 40.1684 36.3277 40.1684 34.1832 40.2738C32.0792 40.3793 30.0157 40.555 27.9926 40.801C27.9522 42.523 27.9522 44.1572 27.9926 45.7036C28.0331 47.2148 28.0735 48.603 28.114 49.8681C28.1949 51.0982 28.2758 52.1701 28.3568 53.0838C28.4377 53.9624 28.5186 54.6126 28.5995 55.0343C28.64 55.3858 28.5793 55.6318 28.4175 55.7723C28.2556 55.9481 28.0128 56.1765 27.6892 56.4577C27.4059 56.7388 27.0215 57.0024 26.536 57.2484C26.0909 57.5295 25.5447 57.758 24.8973 57.9337C24.2499 58.1446 23.5014 58.25 22.6517 58.25C22.2471 58.25 22.0448 58.0919 22.0448 57.7756V55.6142C22.0852 54.6302 22.1054 53.4353 22.1054 52.0295C22.1459 50.6237 22.1661 49.0598 22.1661 47.3378C22.2066 45.5806 22.2471 43.7179 22.2875 41.7499C22.0852 41.785 21.9031 41.8202 21.7413 41.8553C21.6199 41.8905 21.4783 41.9256 21.3164 41.9607C20.8309 42.1013 20.3251 42.0837 19.7991 41.908C19.3136 41.6972 18.8685 41.3809 18.4639 40.9591C18.0593 40.5374 17.7356 40.0454 17.4928 39.4831C17.2905 38.9208 17.1894 38.3233 17.1894 37.6907C17.7154 37.6205 18.2818 37.5502 18.8887 37.4799C19.4957 37.3744 20.0621 37.2866 20.5881 37.2163C21.1951 37.146 21.7818 37.0757 22.3482 37.0054C22.3863 35.0877 22.4244 33.2632 22.4624 31.5321C21.4001 31.5223 20.3874 31.5296 19.4242 31.5542C18.0081 31.5542 16.7538 31.5894 15.6613 31.6597C14.5689 31.73 13.7799 31.8354 13.2943 31.976C12.7278 31.2028 12.3435 30.4472 12.1412 29.7092C12.0198 29.3226 11.9388 28.936 11.8984 28.5494C11.8579 28.0574 11.8984 27.6884 12.0198 27.4424C12.1007 27.1964 12.2828 27.0207 12.566 26.9152C12.8492 26.8098 13.1932 26.7571 13.5978 26.7571C13.9619 26.7219 14.3868 26.7044 14.8723 26.7044C15.3579 26.7044 16.2075 26.7395 17.4214 26.8098C18.6352 26.8449 20.0919 26.8977 21.7913 26.9679ZM39.5134 31.8178C37.4094 31.7827 35.3864 31.7651 33.4442 31.7651C31.4616 31.73 29.7622 31.6948 28.346 31.6597L28.2262 31.6568C28.1888 33.1274 28.1514 34.6994 28.114 36.3728C28.7614 36.3026 29.3885 36.2498 29.9955 36.2147C30.6024 36.1796 31.2498 36.1444 31.9376 36.1093C33.7989 36.039 35.5994 35.9511 37.3392 35.8457C39.1196 35.7402 40.6773 35.7402 42.0126 35.8457C42.0578 34.7228 42.0959 33.6631 42.127 32.6666C41.8431 32.8349 41.5181 32.9912 41.1521 33.1357C40.9903 32.9951 40.8082 32.8546 40.6059 32.714C40.4036 32.5734 40.2215 32.4328 40.0597 32.2923L39.5134 31.8178ZM33.6263 27.1788C31.8385 27.1788 30.08 27.1661 28.3506 27.1408L28.3568 26.9367C28.397 25.6075 28.4373 24.4133 28.4776 23.3539C28.9094 23.6629 29.3511 23.989 29.8027 24.3321C31.0974 25.281 32.372 26.2299 33.6263 27.1788ZM41.6377 22.3289C41.7984 22.2558 41.959 22.183 42.1194 22.1105C42.1385 22.776 42.1636 23.594 42.1946 24.5645C42.2184 25.2979 42.23 26.1407 42.2293 27.0929C41.5621 27.1012 40.8794 27.1123 40.1811 27.1261C39.736 26.6341 39.2504 26.1772 38.7244 25.7555L37.0857 24.3321C38.3805 23.7698 39.8978 23.1021 41.6377 22.3289Z" fill="black"/>
<path fill-rule="evenodd" clip-rule="evenodd" d="M0.00522795 65.3469L0.00522795 65.4494H0.00604523L0.0104339 66L69.6853 65.4494H71L71 0H0.00523076L0.00522798 64.691L0 64.6911L0.00522795 65.3469ZM1.31995 1.30899H69.6853L69.6853 65.0712L69.6779 64.1405L1.31995 64.6806L1.31995 1.30899Z" fill="black"/>
</svg>
